# xmcd CD database file
#
# Track frame offsets:
#	150
#	34116
#	65359
#	95327
#	117639
#	153959
#	173586
#	200190
#	227616
#	245278
#
# Disc length: 3420 seconds
#
# Revision: 0
# Processed by: cddbd v1.5PL3 Copyright (c) Steve Scherf et al.
# Submitted via: CDex 1.51
#
DISCID=7e0d5a0a
DTITLE=Henry Franklin - Bass Encounters
DYEAR=2000
DGENRE=Jazz
TTITLE0=Theme for Jojo
TTITLE1=One for Leroy
TTITLE2=Lynford's Lament
TTITLE3=Black Nile
TTITLE4=Close Encounters of the Very Best Kind
TTITLE5=Eslilian
TTITLE6=Vision Quest
TTITLE7=Bo Bossa
TTITLE8=Puff of Vapor
TTITLE9=You Bring the Sun Out
EXTD=YEAR: 2000
EXTT0=
EXTT1=
EXTT2=
EXTT3=
EXTT4=
EXTT5=
EXTT6=
EXTT7=
EXTT8=
EXTT9=
PLAYORDER=
